<svg width="124" height="52" viewBox="0 0 124 52" fill="none" xmlns="http://www.w3.org/2000/svg">
<g id="logo topo">
<g id="Capa_1" clip-path="url(#clip0_142_2768)">
<path id="Vector" d="M88.4302 42.8917H84.2039C82.1063 42.8917 80.4853 42.335 79.3883 41.2348C78.2881 40.1345 77.7298 38.525 77.7298 36.4519V29.2579H77.7363V20.6225C77.7527 20.3777 77.9518 20.1818 78.2016 20.1818H88.231C88.4906 20.1818 88.7028 19.9712 88.7028 19.71V13.1674C88.7028 12.9078 88.4922 12.6956 88.231 12.6956H78.1363C77.8767 12.6956 77.6645 12.485 77.6645 12.2238V4.51568C77.6645 4.25613 77.4539 4.04391 77.1928 4.04391H75.8852C75.7546 4.04391 75.6305 4.09778 75.5424 4.19246L62.6253 17.9144C62.5436 18.0025 62.4979 18.1168 62.4979 18.2376V19.7133C62.4979 19.9728 62.7085 20.185 62.9697 20.185H68.67C68.9296 20.185 69.1401 20.3956 69.1418 20.6552V37.8345C69.1418 42.0363 70.3726 45.4055 72.8016 47.8443C75.2306 50.2848 78.5819 51.5238 82.7641 51.5238H87.8735C88.4432 51.5238 88.9036 51.0618 88.9036 50.4937V43.3634C88.9036 43.1039 88.693 42.8917 88.4318 42.8917H88.4302Z" fill="#FF1493"/>
<path id="Vector_2" d="M91.315 -3.05176e-05C89.0982 -3.05176e-05 87.3026 1.79724 87.3026 4.01403C87.3026 6.23082 89.0998 8.02809 91.315 8.02809C93.5301 8.02809 95.329 6.23082 95.329 4.01403C95.329 1.79724 93.5318 -3.05176e-05 91.315 -3.05176e-05Z" fill="#C1FF00"/>
<path id="Vector_3" d="M106.969 42.0456L123.897 14.5985C123.943 14.5234 123.967 14.4386 123.967 14.352V13.211C123.967 12.9514 123.757 12.7392 123.496 12.7392H95.1816C94.9221 12.7392 94.7099 12.9498 94.7099 13.211V20.1895C94.7099 20.449 94.9204 20.6612 95.1816 20.6612H110.066C110.435 20.6612 110.66 21.0661 110.467 21.3795L93.3729 49.0943C93.3272 49.1694 93.3027 49.2543 93.3027 49.3424V50.3153C93.3027 50.5749 93.5133 50.7871 93.7745 50.7871H123.531C123.791 50.7871 124.003 50.5765 124.003 50.3153V43.2373C124.003 42.9777 123.793 42.7655 123.531 42.7655H107.372C107.003 42.7655 106.778 42.3607 106.971 42.0472L106.969 42.0456Z" fill="#FF1493"/>
<path id="Vector_4" d="M37.7778 50.9893C41.2336 51.781 44.8477 51.6194 48.5157 50.511C51.4083 49.6377 54.0055 48.2518 56.2337 46.3958C58.3982 44.592 60.0927 42.4046 61.2713 39.8939C61.3774 39.667 61.2876 39.3961 61.0672 39.2785L55.0192 36.0382C54.7808 35.9109 54.4838 36.0088 54.3695 36.2553C53.6529 37.7996 52.6179 39.143 51.2892 40.2498C49.8886 41.4186 48.1811 42.3132 46.2157 42.9073C43.9189 43.6011 41.7152 43.7154 39.6649 43.2485C37.6195 42.7833 35.832 41.794 34.3547 40.3118C33.736 39.6915 33.1794 38.988 32.6929 38.2093C32.528 37.9465 32.6603 37.5988 32.9574 37.509L59.9115 29.365C60.1269 29.2997 60.2657 29.0924 60.2445 28.8687C60.1678 28.0591 60.0763 27.3343 59.9735 26.7156C59.8674 26.0724 59.7384 25.506 59.5801 24.9836C58.519 21.474 56.7985 18.5308 54.4642 16.2356C52.1298 13.9421 49.3613 12.3799 46.2336 11.5947C43.1076 10.8112 39.7889 10.9385 36.3707 11.9702C32.8513 13.0329 29.8558 14.8693 27.466 17.4289C25.0762 19.9836 23.4552 23.0084 22.6472 26.4201C21.8407 29.8286 21.9942 33.4166 23.1026 37.0846C24.1963 40.7052 26.0654 43.7611 28.6576 46.1689C31.2482 48.5783 34.3171 50.2009 37.7762 50.991L37.7778 50.9893ZM30.5202 27.8811C30.8973 25.8929 31.7771 24.156 33.1337 22.7195C34.4983 21.2748 36.3266 20.1991 38.5712 19.5216C40.6623 18.8899 42.5999 18.7724 44.3303 19.1707C46.0443 19.569 47.5461 20.4554 48.7932 21.807C49.4086 22.4779 49.9685 23.2631 50.4648 24.1528C50.6117 24.4156 50.4779 24.7486 50.1889 24.8351L30.9316 30.653C30.6328 30.7427 30.3276 30.5224 30.3227 30.2089C30.3129 29.4058 30.3782 28.6271 30.5202 27.8795V27.8811Z" fill="#FF1493"/>
<path id="Vector_5" d="M19.2916 42.9318H15.0654C12.9677 42.9318 11.3468 42.3735 10.2498 41.2749C9.14958 40.1746 8.5913 38.5651 8.5913 36.492V29.2964H8.59783V4.55414C8.59783 4.24562 8.34807 3.99423 8.03791 3.99423H0.559912C0.251389 3.99423 0 4.24399 0 4.55414V37.8713C0 42.0731 1.23083 45.4424 3.65983 47.8812C6.08883 50.3216 9.44014 51.5606 13.6223 51.5606H18.7317C19.3014 51.5606 19.7618 51.0986 19.7618 50.5306V43.4035C19.7618 43.1423 19.5512 42.9318 19.29 42.9318H19.2916Z" fill="#FF1493"/>
</g>
</g>
<defs>
<clipPath id="clip0_142_2768">
<rect width="124" height="51.5608" fill="white"/>
</clipPath>
</defs>
</svg>
