<svg viewBox="0 0 337.86 27" xmlns:xlink="http://www.w3.org/1999/xlink" xmlns="http://www.w3.org/2000/svg" data-name="Layer 2" id="Layer_2">
  <defs>
    <style>
      .cls-1 {
        fill: none;
      }

      .cls-2 {
        clip-path: url(#clippath);
      }

      .cls-3 {
        fill: #292c2f;
      }

      .cls-4 {
        clip-path: url(#clippath-1);
      }
    </style>
    <clipPath id="clippath">
      <rect height="27" width="337.86" class="cls-1"></rect>
    </clipPath>
    <clipPath id="clippath-1">
      <rect height="27" width="337.86" class="cls-1"></rect>
    </clipPath>
  </defs>
  <g data-name="Layer 1" id="Layer_1-2">
    <g data-name="Artwork 29" id="Artwork_29">
      <g data-name="Layer 1" id="Layer_1-3">
        <g class="cls-2">
          <polygon points="20.18 .61 13.03 22.38 12.99 22.38 5.78 .65 0 .61 0 26.39 3.43 26.39 3.43 4.22 3.5 4.22 11.01 26.39 14.98 26.39 22.45 4.22 22.52 4.22 22.52 26.39 25.95 26.39 25.95 .61 20.18 .61" class="cls-3"></polygon>
          <rect height="25.77" width="3.43" y=".61" x="37.94" class="cls-3"></rect>
          <g class="cls-4">
            <path d="m57.54.61l10.03,16.28c.97,1.55,1.91,3.14,2.89,4.69,0-1.77-.07-3.36-.07-5.13V.61h3.43v25.77h-4.3l-10-16.17c-.97-1.52-1.84-3.07-2.82-4.58,0,1.8.07,3.5.07,5.31v15.45h-3.43V.61h4.19Z" class="cls-3"></path>
            <rect height="25.77" width="3.43" y=".61" x="85.8" class="cls-3"></rect>
            <polygon points="101.21 .61 106.99 .65 114.21 22.38 114.24 22.38 121.39 .61 127.17 .61 127.17 26.39 123.74 26.39 123.74 4.22 123.67 4.22 116.19 26.39 112.22 26.39 104.72 4.22 104.64 4.22 104.64 26.39 101.21 26.39 101.21 .61" class="cls-3"></polygon>
            <path d="m137.06,26.39L146.66.61h4.3l9.6,25.77h-3.54l-2.82-7.54h-10.76l-2.85,7.54h-3.54Zm16.14-10.36l-4.33-12.34h-.11l-4.3,12.34h8.74Z" class="cls-3"></path>
            <polygon points="173.88 .61 173.88 23.5 186.4 23.5 186.4 26.39 170.45 26.39 170.45 .61 173.88 .61" class="cls-3"></polygon>
            <path d="m224.37,26.86c-8.48,0-13.14-6.1-13.14-13.36S215.89.14,224.37.14c6.46,0,10,3.47,11.59,8.05h-3.43c-1.41-3.25-3.79-5.16-8.16-5.16-6.43,0-9.71,4.87-9.71,10.47s3.25,10.47,9.71,10.47c4.4,0,7.15-2.2,8.19-5.2h3.43c-1.01,4.22-5.05,8.09-11.62,8.09" class="cls-3"></path>
            <polygon points="249.67 .61 249.67 23.5 262.2 23.5 262.2 26.39 246.24 26.39 246.24 .61 249.67 .61" class="cls-3"></polygon>
            <path d="m281.08,27c-6.64,0-9.71-4.37-9.71-9.78V.61h3.43v16.6c0,3.72,1.95,6.89,6.28,6.89s6.28-3.18,6.28-6.89V.61h3.43v16.6c0,5.41-3.07,9.78-9.71,9.78" class="cls-3"></path>
            <path d="m302.63.61h9.39c4.37,0,7.58,2.56,7.58,6.89,0,2.71-1.52,4.55-4.08,5.7v.04c2.96.5,5.16,2.49,5.16,5.85,0,4.8-3.39,7.29-8.88,7.29h-9.17V.61Zm8.74,11.26c3,0,4.8-1.48,4.8-4.37s-1.8-4.01-4.8-4.01h-5.31v8.37h5.31Zm1.01,11.62c2.85,0,4.87-1.62,4.87-4.4s-2.02-4.33-4.87-4.33h-6.32v8.74h6.32Z" class="cls-3"></path>
            <path d="m329.7,4.04C329.7,1.84,331.54,0,333.81,0s4.04,1.84,4.04,4.04c0,2.31-1.8,4.11-4.04,4.11s-4.11-1.8-4.11-4.11m4.11,3.14c1.66,0,3.07-1.41,3.07-3.14-.04-1.62-1.41-3-3.07-3s-3.07,1.34-3.07,3,1.34,3.14,3.07,3.14m-1.41-5.05h1.59c.87,0,1.44.43,1.44,1.12,0,.58-.29.87-.61,1.01.32.07.43.43.5.83.07.32.18.65.29.9h-.94c-.11-.22-.22-.54-.29-.83-.11-.4-.18-.58-.69-.58h-.32v1.41h-.97v-3.86Zm1.52,1.7c.43,0,.61-.11.61-.43s-.18-.43-.61-.43h-.54v.87h.54Z" class="cls-3"></path>
          </g>
        </g>
      </g>
    </g>
  </g>
</svg>